<svg xmlns="http://www.w3.org/2000/svg" width="14.91" height="15" viewBox="0 0 14.91 15">
  <defs>
    <style>
      .cls-1 {
        fill: #c7c7ca;
        fill-rule: evenodd;
      }
    </style>
  </defs>
  <path class="cls-1" d="M2897.59,552.294l-2.09-2.108a6.947,6.947,0,1,0-5.57,2.814,6.889,6.889,0,0,0,4.16-1.4l2.1,2.109a0.968,0.968,0,0,0,.7.291,0.985,0.985,0,0,0,.7-0.291A1,1,0,0,0,2897.59,552.294ZM2889.93,551a5,5,0,1,1,4.97-5A4.991,4.991,0,0,1,2889.93,551Z" transform="translate(-2882.97 -539)"/>
</svg>
